<?xml version="1.0" encoding="utf-8"?>
<!-- Generator: Adobe Illustrator 16.0.0, SVG Export Plug-In . SVG Version: 6.00 Build 0)  -->
<!DOCTYPE svg PUBLIC "-//W3C//DTD SVG 1.1//EN" "http://www.w3.org/Graphics/SVG/1.1/DTD/svg11.dtd">
<svg version="1.1" id="Layer_1" xmlns="http://www.w3.org/2000/svg" xmlns:xlink="http://www.w3.org/1999/xlink" x="0px" y="0px"
	 width="1377px" height="711px" viewBox="2151.5 1537 1377 711" style="enable-background:new 2151.5 1537 1377 711;"
	 xml:space="preserve">
<style type="text/css">
<![CDATA[
	.st0{fill:#8CD4E2;}
	.st1{fill:#FFCC67;}
	.st2{fill:#FFFFFF;}
	.st3{fill:#6D6E71;}
]]>
</style>
<image style="display:none;overflow:visible;enable-background:new    ;" width="5680" height="3787" xlink:href="PUCGEwa.jpg" >
</image>
<g id="_x3C_script_x3E__2_">
	<g>
		<path class="st3" d="M2235.4,2208.8c-26.9,0.4-40.4-12.1-40.6-37.8c0.2-25.4,11.6-38.7,34.3-39.9h8.9c10.4,1.6,16.2,3,17.6,4.2
			c1.3,1.2,3.3-0.1,5.8-3.9c2.5,0.2,3.8,1.6,4,4.2v17.7c0.3,3.2-0.8,5.1-3.5,5.5c-2.4,0.2-4.6-3-6.5-9.5
			c-3.5-8.5-10.3-13.1-20.4-13.9c-7.7-0.2-13.9,2.6-18.7,8.4c-4.8,5.8-7.4,14.6-7.8,26.5c0.4,11.1,3.2,19.3,8.5,24.7
			c5.3,5.4,11.5,8,18.6,7.9c5.8-0.4,9.7-1.7,11.8-4.1c2.1-2.3,3.4-4.8,3.7-7.6c0.4-2.7,0.6-5,0.6-7c0-1.9-1.3-3-4-3.2
			c-2.7-0.2-4.1-1.2-4.3-2.9c0-2,1.8-2.9,5.5-2.7h21.9c3.1,0,4.6,0.9,4.6,2.7c0,1.9-1.9,2.9-5.6,2.9s-5.5,2-5.3,6l-0.3,6.1
			c0,4.3-1.1,6.5-3.3,6.7c-2.2,0.2-5.4,1.6-9.5,4.3C2247,2206.9,2241.7,2208.5,2235.4,2208.8z"/>
		<path class="st3" d="M2312.5,2208.6c-3.3,0.2-4.9-0.7-5-2.6c0-1.9,1.2-2.9,3.5-2.9c2,0.2,2.9-1.3,2.9-4.4v-57.1
			c0-2.7-1-4.2-2.9-4.4c-2.7,0.2-4-0.4-4-1.8c-0.2-2.1,1.2-3.1,4.4-2.9h29.3c13.5,1,20.9,8,22.1,21c-1,11.6-6.9,17.7-17.9,18
			c8.5,13.6,14.1,21.6,16.9,24c2.8,2.4,5.1,3.7,6.9,3.9c3.1,0.4,4.8,2,5,4.9c0.2,2.7-1.4,4-4.7,3.8h-8.2c-4.3-0.2-7.9-3.5-10.6-10
			s-8-15.6-15.6-27.2h-9.2v-2.6h8.6c9,0,14-4.6,15-13.7c0-10.9-4.2-16.9-12.7-18h-7c-2.7,0.4-4,2-3.8,4.9v55.3
			c-0.2,4.1,1.3,6.2,4.4,6.4c3.5-0.4,5.2,0.4,5,2.3c0,1.9-1.9,2.9-5.6,2.9L2312.5,2208.6L2312.5,2208.6z"/>
		<path class="st3" d="M2410.4,2208.3c-2.9,0-4.3-0.8-4.3-2.3c0-1.9,1.2-2.8,3.7-2.6c3.1,0,5.4-1.5,6.9-4.4l24.2-57.1l-2-2.6
			c3.8-0.4,6.9-2.1,9.2-5l26.8,63.7c0.8,2.6,3,4.3,6.6,5.1c2.9-0.2,4.4,0.7,4.6,2.6c-0.2,1.7-1.5,2.6-4,2.6h-23
			c-2.5,0-3.7-0.9-3.7-2.6c0-1.8,1.3-2.6,4-2.6c4-0.2,5.5-1.7,4.3-4.7l-7.8-17.7h-27.4l2.3-5.8h23.1l-10.4-24.1
			c-1-1.7-1.8-1.7-2.6,0l-20.7,50.1c-0.6,2.1,1.7,3.1,6.9,2.9c2.7-0.2,4,0.7,4,2.6c0.2,1.7-1.2,2.4-4.3,2L2410.4,2208.3
			L2410.4,2208.3z"/>
		<path class="st3" d="M2525.2,2208.6c-3.2,0.2-5-0.6-5.2-2.3c0-2.1,1.2-3.1,3.7-2.9c2.5-0.6,3.7-2.4,3.7-5.5v-57.1
			c0-2.7-1-4.1-2.9-4.1c-3.3,0.4-5-0.2-5.2-1.7c0-1.7,1.6-2.5,4.7-2.4l28.5-0.2c13.6,0.8,20.5,7.8,20.7,20.9
			c-0.8,12.2-7,18.1-18.7,17.7h-16.1v-2.6h7.2c8.8-0.2,13.6-5.6,14.4-16.3c-0.2-9.5-4.9-14.8-14.1-16h-4.9c-2.5,0.4-3.4,2.1-2.6,5.2
			v55.9c-0.2,3.9,1.2,5.9,4,6.1c2.7-0.2,4.1,0.6,4.3,2.3c0.2,1.9-1.5,2.9-5.2,2.9L2525.2,2208.6L2525.2,2208.6z"/>
		<path class="st3" d="M2614.5,2208.6c-2.9,0-4.5-1-4.6-2.9c0-1.6,1.4-2.2,4.3-2c3.8,0,5.8-2.4,5.8-7.1V2144c0-4.5-1.8-6.8-5.5-7
			c-2.9,0.2-4.3-0.6-4.3-2.3c0-1.9,1.5-2.9,4.6-2.9h23.4c3.1,0,4.6,0.9,4.6,2.6c0,1.7-1.6,2.7-4.9,2.9c-2.9,0.2-4.3,2.6-4.3,7.3
			l0.2,52c0,4.3,1.5,6.6,4.4,6.8c2.5,0,3.7,0.9,3.7,2.6c0.4,1.7-0.7,2.6-3.4,2.6L2614.5,2208.6L2614.5,2208.6z M2660.9,2208.3
			c-2.9,0-4.6-0.9-4.9-2.6c0-1.7,1.6-2.6,4.9-2.6c3.8-0.2,5.7-2.4,5.5-6.8v-21.5h-32.8v-6.7h32.8v-22.7c-0.2-5.2-1.9-8.1-5.2-8.7
			c-3.1,0-4.6-0.9-4.6-2.6s1.5-2.6,4.6-2.6h23.4c3.1,0,4.7,1.1,4.9,3.2c0,1.7-1.7,2.5-5.2,2.3c-2.9,0.2-4.3,2.9-4.3,8.1l0.2,51.2
			c-0.1,4.3,1.5,6.5,5,6.5c2.5,0,3.8,1,4,2.9c0,1.9-1.4,2.8-4.2,2.6L2660.9,2208.3L2660.9,2208.3z"/>
		<path class="st3" d="M2727.2,2208.3c-2.9,0-4.5-0.9-4.6-2.6c0-1.7,1.5-2.6,4.6-2.6c3.5,0,5.3-1.9,5.5-5.8v-53.6
			c0-4.3-1.7-6.6-5.2-7c-3.1,0.2-4.6-0.6-4.6-2.3c0-1.9,1.5-2.9,4.6-2.9h23.4c3.1,0,4.6,0.9,4.6,2.6c0.2,1.9-1.3,2.8-4.6,2.6
			c-3.1,0.4-4.6,2.9-4.6,7.6v52.7c0,4.1,1.5,6.1,4.6,6.1c2.9,0,4.3,0.9,4.3,2.6c0,1.8-1.3,2.6-4,2.6L2727.2,2208.3L2727.2,2208.3z"
			/>
		<path class="st3" d="M2830.1,2208.6c-26.1,0.6-39.7-11.7-40.6-36.9c0.8-25.4,12.2-38.3,34.3-38.7h9.8c9.2,1.6,14.7,3.2,16.6,4.9
			s3.9,0.6,6.2-3.5c2.5,0.2,3.7,1.9,3.7,5v15.7c0,3-1.2,4.6-3.5,4.8c-3-0.1-5.6-3.3-7.7-9.5c-5-8.5-10.9-12.8-17.6-12.8
			c-6.7-0.2-13,2.2-18.9,7.3c-5.8,5-8.6,14-8.2,26.8c0.2,10.7,2.8,18.5,7.9,23.4c5.1,4.9,11,7.6,17.7,8c6.1-0.4,11.2-2.6,15.1-6.7
			c3.9-4.1,6.6-7.5,7.9-10.3c1.3-2.8,3.2-4.2,5.5-4.2l-0.1,15.4c-3.5,2.9-7.4,5.4-12,7.5C2841.9,2206.9,2836.5,2208.2,2830.1,2208.6
			z"/>
		<path class="st3" d="M2956,2208.3c-2.3,0-3.5-0.9-3.6-2.6c0-1.7,1.2-2.5,3.5-2.3c2.7-0.2,4-1.7,4-4.7v-53.9c0-3.1-1.2-4.8-3.5-4.9
			c-2.9,0-4.3-0.8-4.3-2.3c0.2-1.4,1.7-2,4.5-2h22.7c25.9,0,39.3,12.5,40.3,37.6c-0.4,23.5-13.7,35.2-40,35.2h-10.2v-4.4h8.9
			c17.1-1.7,26-11.9,26.8-30.6c-1.7-20.8-10.7-31.8-26.8-33.2h-8.9v31.7v36.4L2956,2208.3L2956,2208.3z"/>
		<path class="st3" d="M3057.6,2208.3c-2.7-0.2-4-1.1-4-2.6c0-1.9,1.3-2.9,4-2.9c2.7-0.4,3.9-3.3,3.7-8.7v-48.6
			c-0.2-3.9-1.4-5.9-3.7-6.1c-2.5,0-3.8-1-4-2.9c0-1.6,1.7-2.3,5.1-2.3h28.9c7.5-0.4,11.6,0.8,12.4,3.5l2.6,7.3
			c0.6,2.9,0,4.5-1.7,4.7c-1.9,0-4.3-1.8-7.2-5.4c-2.9-3.6-6.1-5.5-9.8-5.7h-6.3c-3.3,0.2-4.8,3.5-4.6,9.9v21.2h10.1
			c2.5,0,3.8-1.3,4-3.9c0.2-2.6,1.2-3.9,2.9-3.9c1.7,0,2.6,1.3,2.6,3.8v13.7c0,2.3-0.8,3.5-2.3,3.5c-1.7,0-2.7-1.2-3-3.5
			c-0.3-2.3-1.8-3.4-4.5-3.2h-9.8v18.6c0,5.4,1.3,8.3,4,8.7h11.2c4.8-0.8,8.8-2.6,11.8-5.5c3.1-2.9,5.4-4.4,6.9-4.4
			c1.5,0.2,2.1,1.6,1.7,4.1l-1.7,7c-0.8,3.1-2.7,4.4-5.8,3.8L3057.6,2208.3L3057.6,2208.3z"/>
		<path class="st3" d="M3170.8,2177.2c-16.6-3.9-25.1-11.9-25.3-24.1c0.5-13.2,8.1-20.1,22.8-20.7h7.8c7.5,1.6,11.9,3.1,13.2,4.5
			c1.3,1.4,2.4,1.3,3.2-0.4c0.8-1.7,1.6-2.6,2.4-2.6c1.7,0.2,2.6,1.9,2.6,5v15.7c0,3-1,4.6-2.9,4.8c-1.9,0.2-4.3-3.1-7.2-9.8
			c-2.1-6.6-7.1-10.5-15.1-11.6c-11.4,0.8-16.7,4.9-16.1,12.5c-0.1,6.8,5.7,11.3,17.4,13.7c14.3,3.7,21.7,11.9,22.3,24.7
			c-0.6,12.6-6.9,19.1-18.8,19.5h-13.9c-4.3-0.6-7.3-1.6-9.1-3.1c-1.7-1.5-2.9-1.4-3.6,0.3c-0.7,1.6-1.4,2.5-2,2.5
			c-2.3,0.2-3.5-1-3.5-3.5v-14.8c0.2-2.7,1.3-4.1,3.3-4.1c1.8,0.2,3.5,2.3,4.9,6.4c1.8,6.4,8,10.4,18.7,11.9
			c9-1.2,13.6-4.8,13.9-10.8C3186.2,2184.6,3181.1,2179.3,3170.8,2177.2z"/>
		<path class="st3" d="M3239.8,2208.3c-2.9,0-4.5-0.9-4.6-2.6c0-1.7,1.5-2.6,4.6-2.6c3.5,0,5.3-1.9,5.5-5.8v-53.6
			c0-4.3-1.7-6.6-5.2-7c-3.1,0.2-4.6-0.6-4.6-2.3c0-1.9,1.5-2.9,4.6-2.9h23.3c3.1,0,4.6,0.9,4.6,2.6c0.2,1.9-1.3,2.8-4.6,2.6
			c-3.1,0.4-4.6,2.9-4.6,7.6v52.7c0,4.1,1.5,6.1,4.6,6.1c2.9,0,4.3,0.9,4.3,2.6c0,1.8-1.3,2.6-4,2.6L3239.8,2208.3L3239.8,2208.3z"
			/>
		<path class="st3" d="M3342.2,2208.8c-26.9,0.4-40.4-12.1-40.6-37.8c0.2-25.4,11.6-38.7,34.3-39.9h8.9c10.4,1.6,16.2,3,17.6,4.2
			c1.3,1.2,3.3-0.1,5.8-3.9c2.5,0.2,3.8,1.6,4,4.2v17.7c0.3,3.2-0.8,5.1-3.5,5.5c-2.4,0.2-4.6-3-6.5-9.5
			c-3.5-8.5-10.3-13.1-20.4-13.9c-7.7-0.2-13.9,2.6-18.7,8.4c-4.8,5.8-7.4,14.6-7.8,26.5c0.4,11.1,3.2,19.3,8.5,24.7
			c5.3,5.4,11.5,8,18.6,7.9c5.8-0.4,9.7-1.7,11.8-4.1c2.1-2.3,3.4-4.8,3.7-7.6c0.4-2.7,0.6-5,0.6-7c0-1.9-1.3-3-4-3.2
			c-2.7-0.2-4.1-1.2-4.3-2.9c0-2,1.8-2.9,5.5-2.7h21.9c3.1,0,4.6,0.9,4.6,2.7c0,1.9-1.9,2.9-5.6,2.9c-3.7,0-5.5,2-5.3,6l-0.3,6.1
			c0,4.3-1.1,6.5-3.3,6.7c-2.2,0.2-5.4,1.6-9.5,4.3C3353.7,2206.9,3348.5,2208.5,3342.2,2208.8z"/>
		<path class="st3" d="M3479,2206.3l-48.9-58.8v50.1c0.2,2.9,2,4.8,5.5,5.5c2.5-0.2,3.8,0.6,4,2.3c0,2.1-1.2,3.1-3.7,2.9h-17.6
			c-2.5,0-3.9-1-4-2.9c0.2-1.7,1.5-2.5,4-2.3c3.2-0.6,4.8-2.6,4.8-6.1v-52.1c-0.3-4.3-1.9-6.8-4.8-7.6c-2.9-0.4-4.3-1.4-4.3-2.9
			c0-1.9,1.4-2.9,4.2-2.9h12.8c3.7,0.2,6.4,2.2,8.1,6.1l37.5,44.8l-0.1-38.7c-0.2-4.5-1.7-7-4.6-7.6c-2.3,0.2-3.5-0.5-3.7-2
			c0-1.7,1.4-2.6,4.2-2.6h15.8c2.5-0.2,3.7,0.6,3.6,2.3c0,1.9-1.2,2.8-3.7,2.6c-3.1,0.4-4.6,3-4.6,7.9l0.2,59.4
			C3483.4,2207.2,3481.9,2208,3479,2206.3z"/>
	</g>
	<g id="_x3C_script_x3E__3_">
		<path class="st3" d="M2447.3,2046.4c-6.1,5.2-12.3,8.9-18.4,11.1s-10.9,3.3-14.2,3.3c-9.4,0-18.5-3.6-27.5-10.9
			c-23.3,29.3-47.3,43.9-72,43.9c-18.2,0-31.2-10.1-39-30.3c-17.2,20.2-35.7,30.3-55.5,30.3c-12.9,0-23.1-4.3-30.5-12.9
			c-7.4-8.6-11.2-20.5-11.2-35.6c0-16.3,2.3-32.9,6.8-49.7c4.5-16.8,11.5-37.4,20.8-61.7l50.6-9.5l-14.2,43.3
			c-12,37.5-18,63.4-18,77.6c0,6.7,1.6,12.2,4.8,16.5c3.2,4.3,7.2,6.4,12.1,6.4c10.3,0,20.5-8,30.7-24.1c0-20.3,3.6-41.4,11-63.3
			l15.7-47l51.4-9.5l-21.5,67.1c-6.9,21.6-10.4,38.7-10.4,51.2c0,7.6,1.7,13.7,5,18.2c3.3,4.5,7.8,6.8,13.3,6.8
			c6.8,0,13.2-2.5,19.2-7.6c6-5,12.8-12.7,20.4-22.9c-6.8-12.5-10.2-25.5-10.2-39c0-19.4,4.8-36.6,14.4-51.5
			c9.6-14.9,20.4-22.4,32.5-22.4c8.3,0,12.5,6.3,12.5,19c0,27.3-10.4,58.2-31.3,92.8c6.4,6.1,13.2,9.1,20.4,9.1
			c8.6,0,19.3-7,32.3-21.1L2447.3,2046.4L2447.3,2046.4z"/>
		<path class="st3" d="M2541.7,2046.4c-30,31.8-52.4,47.7-67.2,47.7c-8.2,0-15.1-4.2-20.7-12.7c-5.6-8.5-8.5-19.1-8.5-31.9
			c0-27.5,9.2-65.7,27.7-114.5l48.8-10.3h2.3l-19.2,60.7c-8,25.1-11.9,43-11.9,53.8c0,4.3,0.9,7.7,2.8,10.4c1.8,2.7,4.2,4,7,4
			c5,0,10-1.8,15.1-5.5c5-3.7,13-11.7,23.9-24L2541.7,2046.4L2541.7,2046.4z"/>
		<path class="st3" d="M2730.3,2046.4c-29.6,31.6-55,47.4-76.1,47.4c-8.6,0-15.5-3-20.7-9.1c-5.2-6.1-7.9-14.2-7.9-24.4
			c0-13.8,5.6-35,16.9-63.5c6-15.3,9-25,9-29.1c0-4.1-1.6-6.2-4.8-6.2c-1.8,0-4.2,0.9-7.1,2.7c-2.7,1.8-5.8,4.3-9.4,7.6
			c-3.2,3-6.8,6.6-10.8,10.9c-3.5,3.6-7.2,7.8-11.2,12.4l-10.8,12.6c-4.7,5.8-7.7,12-8.9,18.4c-1.9,11-3.2,21.1-3.8,30.3
			c-0.4,6.9-0.6,16.1-0.6,27.8l-42.5,10.1c-1.4-17.5-2.1-30.5-2.1-39c0-20.8,2.4-40.6,7.2-59.2c4.8-18.6,12.5-39.6,23.2-62.9
			l46.9-9.1c-9.9,26.8-16.3,47.9-19.4,63.3c21-23.7,37.6-40.1,50-49.2c12.3-9.1,23.3-13.7,32.9-13.7c6.5,0,12,2.5,16.3,7.5
			c4.3,5,6.5,11.2,6.5,18.7c0,12.4-5.5,32.9-16.5,61.3c-7.5,19.5-11.3,32.2-11.3,38.1c0,7.8,3.1,11.7,9.5,11.7
			c9.4,0,24.5-12.5,45.5-37.5L2730.3,2046.4L2730.3,2046.4z"/>
		<path class="st3" d="M2935.3,2046.4c-18.4,18.5-32.5,31-42.2,37.6c-9.7,6.5-18.2,9.8-25.7,9.8c-9.1,0-16.3-4.5-21.6-13.4
			c-5.3-8.9-8.1-22-8.2-39.2c-10.5,17.2-21.9,30.3-34.3,39.2c-12.4,8.9-23.5,13.4-33.5,13.4c-10.9,0-20.5-5.2-28.8-15.6
			c-8.3-10.4-12.5-22.6-12.5-36.6c0-28.8,10.4-55.6,31.2-80.2c20.8-24.6,43.2-37,67.1-37c6.6,0,11.9,1,15.7,2.9
			c3.8,1.9,7.9,5.2,12.4,9.9l27.5-116.1c22.4-5.3,37.5-8,45.4-8c2.6,0,3.8,1,3.8,3.1c0,1.4-3.2,14.8-9.6,40.2
			c-25.6,101.5-38.4,162.6-38.4,183.6c0,4.9,1,8.9,3.1,11.8c2,3,4.7,4.4,8.1,4.4c8.2,0,21.7-10.7,40.5-32.2L2935.3,2046.4
			L2935.3,2046.4z M2796.4,2056.7c12.6,0,24.3-10.7,35.1-32.2c10.9-21.5,16.3-41.6,16.3-60.3c0-7.6-1.7-13.7-5.1-18.2
			c-3.4-4.5-7.9-6.8-13.4-6.8c-11.9,0-23.5,11.2-34.6,33.7c-11.2,22.4-16.7,42.7-16.7,60.8c0,7.1,1.6,12.7,4.9,16.9
			C2786.3,2054.6,2790.7,2056.7,2796.4,2056.7z"/>
		<path class="st3" d="M3279.5,2046.4c-20.5,19.7-35.1,32.5-44,38.4c-8.9,5.9-17.3,8.9-25.4,8.9c-20.2,0-29.8-18-28.6-54.1
			c-12.8,18.5-24.6,32.2-35.4,41c-10.8,8.8-22,13.2-33.5,13.2c-11.3,0-20.8-5.3-28.7-16c-7.9-10.7-11.8-23.8-11.8-39.3
			c0-19.4,5.3-37.9,15.8-55.5c10.6-17.6,24.1-31.8,40.6-42.7c16.5-10.9,31.1-16.3,43.8-16.3c16,0,27.2,7.4,33.6,22.3l39.3-21.9h10.8
			l-16.9,56.9c-8.7,28.6-13.1,48.2-13.1,58.8c0,11.1,3.9,16.7,11.7,16.7c5,0,10.5-2.7,16.5-8c6-5.4,14.5-13.5,25.4-24.5V2046.4
			L3279.5,2046.4z M3138.9,2057.1c12.8,0,24.9-11,36.2-33.1s17-42.4,17-61c0-7.2-1.6-12.9-4.8-17c-3.2-4.1-7.5-6.1-12.9-6.1
			c-12.8,0-25,11-36.4,33c-11.5,22-17.2,42.3-17.2,60.7c0,7,1.7,12.6,5.1,17C3129.3,2054.9,3133.6,2057.1,3138.9,2057.1z"/>
		<path class="st3" d="M3373.8,2046.4c-30,31.8-52.4,47.7-67.2,47.7c-8.2,0-15.1-4.2-20.7-12.7c-5.6-8.5-8.5-19.1-8.5-31.9
			c0-27.5,9.2-65.7,27.7-114.5l48.8-10.3h2.3l-19.2,60.7c-8,25.1-11.9,43-11.9,53.8c0,4.3,0.9,7.7,2.8,10.4c1.9,2.7,4.2,4,7,4
			c5,0,10-1.8,15.1-5.5c5-3.7,13-11.7,23.9-24L3373.8,2046.4L3373.8,2046.4z"/>
		<path class="st3" d="M3501,2046.4c-17.4,16.2-32.7,28.1-45.8,35.8c-13.1,7.7-25.6,11.5-37.5,11.5c-13.7,0-24.8-5.4-33.1-16.1
			s-12.6-25.1-12.6-43.3c0-27.2,5.8-59.8,17.5-97.8c11.7-38.1,26.9-74.4,42.5-105.2c15.5-30.8,52.1-29.9,61.4-10.8
			c2.4,5.5,3.6,12.9,3.6,22.2c0,26.4-6,52-18.1,76.6c-12,24.7-30.9,51.1-56.5,79.2c-1,13.5-1.5,22.7-1.5,27.8
			c0,11.2,2,20.2,6.1,26.8s9.5,9.9,16.3,9.9c6.9,0,14.3-2.5,22.1-7.6c7.8-5,19.7-15.5,35.7-31.5V2046.4L3501,2046.4z M3427.4,1970.6
			c16.3-18.3,29.5-38.8,39.6-61.4c10.1-22.7,15.2-42.2,15.2-58.5c0-4.8-0.7-8.6-2.1-11.6c-1.4-2.9-3.2-4.4-5.4-4.4
			c-4.7,0-11.6,11.9-20.6,35.8C3445,1894.3,3436.1,1927.7,3427.4,1970.6z"/>
	</g>
	<g id="_x3C_sail_x3E__1_">
		<g>
			<path class="st3" d="M3005.6,1881.9c-15.3,80.4-55.5,152.4-97.1,132.2c9.9,65.6,62.8,101.3,103,93.1
				C3066.4,2094.3,3099,1952.5,3005.6,1881.9z M3032.6,2032.1c-5,24.3-16.8,39.7-25.4,42.1c-1.7,0.3-3.4,0.5-5.2,0.5
				c-14.9,0-36.1-11.3-48-35.7c29.6-10.9,51.2-48.8,64.4-90C3035.6,1975.7,3037.7,2007.4,3032.6,2032.1z"/>
		</g>
		<g>
			<path class="st3" d="M3005.6,1881.9c-15.3,80.4-55.5,152.4-97.1,132.2c9.9,65.6,62.8,101.3,103,93.1
				C3066.4,2094.3,3099,1952.5,3005.6,1881.9z M3032.6,2032.1c-5,24.3-16.8,39.7-25.4,42.1c-1.7,0.3-3.4,0.5-5.2,0.5
				c-14.9,0-36.1-11.3-48-35.7c29.6-10.9,51.2-48.8,64.4-90C3035.6,1975.7,3037.7,2007.4,3032.6,2032.1z"/>
		</g>
	</g>
	<path id="TopSail_1_" class="st3" d="M3324.6,1896.1c-206.5-419.8-619.6-419.8-826.2,0C2653.3,1686.2,3169.7,1686.2,3324.6,1896.1z
		"/>
</g>
<g id="_x3C_script_x3E__1_">
	<g>
		<path class="st2" d="M2235.4,2206.3c-26.9,0.4-40.4-12.1-40.6-37.8c0.2-25.4,11.6-38.7,34.3-39.9h8.9c10.4,1.6,16.2,3,17.6,4.2
			c1.3,1.2,3.3-0.1,5.8-3.9c2.5,0.2,3.8,1.6,4,4.2v17.7c0.3,3.2-0.8,5.1-3.5,5.5c-2.4,0.2-4.6-3-6.5-9.5
			c-3.5-8.5-10.3-13.1-20.4-13.9c-7.7-0.2-13.9,2.6-18.7,8.4c-4.8,5.8-7.4,14.6-7.8,26.5c0.4,11.1,3.2,19.3,8.5,24.7
			c5.3,5.4,11.5,8,18.6,7.9c5.8-0.4,9.7-1.7,11.8-4.1c2.1-2.3,3.4-4.8,3.7-7.6c0.4-2.7,0.6-5,0.6-7c0-1.9-1.3-3-4-3.2
			c-2.7-0.2-4.1-1.2-4.3-2.9c0-2,1.8-2.9,5.5-2.7h21.9c3.1,0,4.6,0.9,4.6,2.7c0,1.9-1.9,2.9-5.6,2.9c-3.7,0-5.5,2-5.3,6l-0.3,6.1
			c0,4.3-1.1,6.5-3.3,6.7c-2.2,0.2-5.4,1.6-9.5,4.3C2247,2204.4,2241.7,2205.9,2235.4,2206.3z"/>
		<path class="st2" d="M2312.5,2206.1c-3.3,0.2-4.9-0.7-5-2.6c0-1.9,1.2-2.9,3.5-2.9c2,0.2,2.9-1.3,2.9-4.4v-57.1
			c0-2.7-1-4.2-2.9-4.4c-2.7,0.2-4-0.4-4-1.8c-0.2-2.1,1.2-3.1,4.4-2.9h29.3c13.5,1,20.9,8,22.1,21c-1,11.6-6.9,17.7-17.9,18
			c8.5,13.6,14.1,21.6,16.9,24c2.8,2.4,5.1,3.7,6.9,3.9c3.1,0.4,4.8,2,5,4.9c0.2,2.7-1.4,4-4.7,3.8h-8.2c-4.3-0.2-7.9-3.5-10.6-10
			c-2.8-6.5-8-15.6-15.6-27.2h-9.2v-2.6h8.6c9,0,14-4.6,15-13.7c0-10.9-4.2-16.9-12.7-18h-7c-2.7,0.4-4,2-3.8,4.9v55.3
			c-0.2,4.1,1.3,6.2,4.4,6.4c3.5-0.4,5.2,0.4,5,2.3c0,1.9-1.9,2.9-5.6,2.9L2312.5,2206.1L2312.5,2206.1z"/>
		<path class="st2" d="M2410.4,2205.8c-2.9,0-4.3-0.8-4.3-2.3c0-1.9,1.2-2.8,3.7-2.6c3.1,0,5.4-1.5,6.9-4.4l24.2-57.1l-2-2.6
			c3.8-0.4,6.9-2.1,9.2-5l26.8,63.7c0.8,2.6,3,4.3,6.6,5.1c2.9-0.2,4.4,0.7,4.6,2.6c-0.2,1.7-1.5,2.6-4,2.6h-23.1
			c-2.5,0-3.7-0.9-3.7-2.6s1.3-2.6,4-2.6c4-0.2,5.5-1.7,4.3-4.7l-7.8-17.7h-27.4l2.3-5.8h23l-10.4-24.1c-1-1.7-1.8-1.7-2.6,0
			l-20.7,50.1c-0.6,2.1,1.7,3.1,6.9,2.9c2.7-0.2,4,0.7,4,2.6c0.2,1.7-1.2,2.4-4.3,2L2410.4,2205.8L2410.4,2205.8z"/>
		<path class="st2" d="M2525.2,2206.1c-3.2,0.2-5-0.6-5.2-2.3c0-2.1,1.2-3.1,3.7-2.9c2.5-0.6,3.7-2.4,3.7-5.5v-57.1
			c0-2.7-1-4.1-2.9-4.1c-3.3,0.4-5-0.2-5.2-1.7c0-1.7,1.6-2.5,4.7-2.4l28.5-0.2c13.6,0.8,20.5,7.8,20.7,20.9
			c-0.8,12.2-7,18.1-18.7,17.7h-16.1v-2.6h7.2c8.8-0.2,13.6-5.6,14.4-16.3c-0.2-9.5-4.9-14.8-14.1-16h-4.9c-2.5,0.4-3.4,2.1-2.6,5.2
			v55.9c-0.2,3.9,1.2,5.9,4,6.1c2.7-0.2,4.1,0.6,4.3,2.3c0.2,1.9-1.5,2.9-5.2,2.9L2525.2,2206.1L2525.2,2206.1z"/>
		<path class="st2" d="M2614.5,2206.1c-2.9,0-4.5-1-4.6-2.9c0-1.6,1.4-2.2,4.3-2c3.8,0,5.8-2.4,5.8-7.1v-52.6c0-4.5-1.8-6.8-5.5-7
			c-2.9,0.2-4.3-0.6-4.3-2.3c0-1.9,1.5-2.9,4.6-2.9h23.4c3.1,0,4.6,0.9,4.6,2.6c0,1.7-1.6,2.7-4.9,2.9c-2.9,0.2-4.3,2.6-4.3,7.3
			l0.2,52c0,4.3,1.5,6.6,4.4,6.8c2.5,0,3.7,0.9,3.7,2.6c0.4,1.7-0.7,2.6-3.4,2.6L2614.5,2206.1L2614.5,2206.1z M2660.9,2205.8
			c-2.9,0-4.6-0.9-4.9-2.6c0-1.7,1.6-2.6,4.9-2.6c3.8-0.2,5.7-2.4,5.5-6.8v-21.5h-32.8v-6.7h32.8v-22.7c-0.2-5.2-1.9-8.1-5.2-8.7
			c-3.1,0-4.6-0.9-4.6-2.6s1.5-2.6,4.6-2.6h23.4c3.1,0,4.7,1.1,4.9,3.2c0,1.7-1.7,2.5-5.2,2.3c-2.9,0.2-4.3,2.9-4.3,8.1l0.2,51.2
			c-0.1,4.3,1.5,6.5,5,6.5c2.5,0,3.8,1,4,2.9c0,1.9-1.4,2.8-4.2,2.6h-24.1V2205.8z"/>
		<path class="st2" d="M2727.2,2205.8c-2.9,0-4.5-0.9-4.6-2.6c0-1.7,1.5-2.6,4.6-2.6c3.5,0,5.3-1.9,5.5-5.8v-53.6
			c0-4.3-1.7-6.6-5.2-7c-3.1,0.2-4.6-0.6-4.6-2.3c0-1.9,1.5-2.9,4.6-2.9h23.4c3.1,0,4.6,0.9,4.6,2.6c0.2,1.9-1.3,2.8-4.6,2.6
			c-3.1,0.4-4.6,2.9-4.6,7.6v52.7c0,4.1,1.5,6.1,4.6,6.1c2.9,0,4.3,0.9,4.3,2.6s-1.3,2.6-4,2.6L2727.2,2205.8L2727.2,2205.8z"/>
		<path class="st2" d="M2830.1,2206c-26.1,0.6-39.7-11.7-40.6-36.9c0.8-25.4,12.2-38.3,34.3-38.7h9.8c9.2,1.6,14.7,3.2,16.6,4.9
			c1.8,1.7,3.9,0.6,6.2-3.5c2.5,0.2,3.7,1.9,3.7,5v15.7c0,3-1.2,4.6-3.5,4.8c-3-0.1-5.6-3.3-7.7-9.5c-5-8.5-10.9-12.8-17.6-12.8
			c-6.7-0.2-13,2.2-18.9,7.3c-5.8,5-8.6,14-8.2,26.8c0.2,10.7,2.8,18.5,7.9,23.4c5.1,4.9,11,7.6,17.7,8c6.1-0.4,11.2-2.6,15.1-6.7
			c3.9-4.1,6.6-7.5,7.9-10.3c1.3-2.8,3.2-4.2,5.5-4.2l-0.1,15.4c-3.5,2.9-7.4,5.4-12,7.5C2841.9,2204.3,2836.5,2205.6,2830.1,2206z"
			/>
		<path class="st2" d="M2956,2205.8c-2.3,0-3.5-0.9-3.6-2.6c0-1.7,1.2-2.5,3.5-2.3c2.7-0.2,4-1.7,4-4.7v-53.9c0-3.1-1.2-4.8-3.5-4.9
			c-2.9,0-4.3-0.8-4.3-2.3c0.2-1.4,1.7-2,4.5-2h22.7c25.9,0,39.3,12.5,40.3,37.6c-0.4,23.5-13.7,35.2-40,35.2h-10.2v-4.3h8.9
			c17.1-1.7,26-11.9,26.8-30.6c-1.7-20.8-10.7-31.8-26.8-33.2h-8.9v31.7v36.4H2956z"/>
		<path class="st2" d="M3057.6,2205.8c-2.7-0.2-4-1.1-4-2.6c0-1.9,1.3-2.9,4-2.9c2.7-0.4,3.9-3.3,3.7-8.7v-48.6
			c-0.2-3.9-1.4-5.9-3.7-6.1c-2.5,0-3.8-1-4-2.9c0-1.6,1.7-2.3,5.1-2.3h28.9c7.5-0.4,11.6,0.8,12.4,3.5l2.6,7.3
			c0.6,2.9,0,4.5-1.7,4.7c-1.9,0-4.3-1.8-7.2-5.4c-2.9-3.6-6.1-5.5-9.8-5.7h-6.3c-3.3,0.2-4.8,3.5-4.6,9.9v21.2h10.1
			c2.5,0,3.8-1.3,4-3.9s1.2-3.9,2.9-3.9c1.7,0,2.6,1.3,2.6,3.8v13.7c0,2.3-0.8,3.5-2.3,3.5c-1.7,0-2.7-1.2-3-3.5
			c-0.3-2.3-1.8-3.4-4.5-3.2h-9.8v18.6c0,5.4,1.3,8.3,4,8.7h11.2c4.8-0.8,8.8-2.6,11.8-5.5c3.1-2.9,5.4-4.4,6.9-4.4
			c1.5,0.2,2.1,1.6,1.7,4.1l-1.7,7c-0.8,3.1-2.7,4.4-5.8,3.8L3057.6,2205.8L3057.6,2205.8z"/>
		<path class="st2" d="M3170.8,2174.6c-16.6-3.9-25.1-11.9-25.3-24.1c0.5-13.2,8.1-20.1,22.8-20.7h7.8c7.5,1.6,11.9,3.1,13.2,4.5
			s2.4,1.3,3.2-0.4c0.8-1.7,1.6-2.6,2.4-2.6c1.7,0.2,2.6,1.9,2.6,5v15.7c0,3-1,4.6-2.9,4.8c-1.9,0.2-4.3-3.1-7.2-9.8
			c-2.1-6.6-7.1-10.5-15.1-11.6c-11.4,0.8-16.7,4.9-16.1,12.5c-0.1,6.8,5.7,11.3,17.4,13.7c14.3,3.7,21.7,11.9,22.3,24.7
			c-0.6,12.6-6.9,19.1-18.8,19.5h-13.9c-4.3-0.6-7.3-1.6-9.1-3.1c-1.7-1.5-2.9-1.4-3.6,0.3c-0.7,1.6-1.4,2.5-2,2.5
			c-2.3,0.2-3.5-1-3.5-3.5v-14.8c0.2-2.7,1.3-4.1,3.3-4.1c1.8,0.2,3.5,2.3,4.9,6.4c1.8,6.4,8,10.4,18.7,11.9
			c9-1.2,13.6-4.8,13.9-10.8C3186.2,2182.1,3181.1,2176.8,3170.8,2174.6z"/>
		<path class="st2" d="M3239.8,2205.8c-2.9,0-4.5-0.9-4.6-2.6c0-1.7,1.5-2.6,4.6-2.6c3.5,0,5.3-1.9,5.5-5.8v-53.6
			c0-4.3-1.7-6.6-5.2-7c-3.1,0.2-4.6-0.6-4.6-2.3c0-1.9,1.5-2.9,4.6-2.9h23.4c3.1,0,4.6,0.9,4.6,2.6c0.2,1.9-1.3,2.8-4.6,2.6
			c-3.1,0.4-4.6,2.9-4.6,7.6v52.7c0,4.1,1.5,6.1,4.6,6.1c2.9,0,4.3,0.9,4.3,2.6s-1.3,2.6-4,2.6L3239.8,2205.8L3239.8,2205.8z"/>
		<path class="st2" d="M3342.2,2206.3c-26.9,0.4-40.4-12.1-40.6-37.8c0.2-25.4,11.6-38.7,34.3-39.9h8.9c10.4,1.6,16.2,3,17.6,4.2
			c1.3,1.2,3.3-0.1,5.8-3.9c2.5,0.2,3.8,1.6,4,4.2v17.7c0.3,3.2-0.8,5.1-3.5,5.5c-2.4,0.2-4.6-3-6.5-9.5
			c-3.5-8.5-10.3-13.1-20.4-13.9c-7.7-0.2-13.9,2.6-18.7,8.4c-4.8,5.8-7.4,14.6-7.8,26.5c0.4,11.1,3.2,19.3,8.5,24.7
			c5.3,5.4,11.5,8,18.6,7.9c5.8-0.4,9.7-1.7,11.8-4.1c2.1-2.3,3.4-4.8,3.7-7.6c0.4-2.7,0.6-5,0.6-7c0-1.9-1.3-3-4-3.2
			c-2.7-0.2-4.1-1.2-4.3-2.9c0-2,1.8-2.9,5.5-2.7h21.9c3.1,0,4.6,0.9,4.6,2.7c0,1.9-1.9,2.9-5.6,2.9c-3.7,0-5.5,2-5.3,6l-0.3,6.1
			c0,4.3-1.1,6.5-3.3,6.7c-2.2,0.2-5.4,1.6-9.5,4.3C3353.7,2204.4,3348.5,2205.9,3342.2,2206.3z"/>
		<path class="st2" d="M3479,2203.7l-48.9-58.8v50.1c0.2,2.9,2,4.8,5.5,5.5c2.5-0.2,3.8,0.6,4,2.3c0,2.1-1.2,3.1-3.7,2.9h-17.6
			c-2.5,0-3.9-1-4-2.9c0.2-1.7,1.5-2.5,4-2.3c3.2-0.6,4.8-2.6,4.8-6.1v-52.1c-0.3-4.3-1.9-6.8-4.8-7.6c-2.9-0.4-4.3-1.4-4.3-2.9
			c0-1.9,1.4-2.9,4.2-2.9h12.8c3.7,0.2,6.4,2.2,8.1,6.1l37.5,44.8l-0.1-38.7c-0.2-4.5-1.7-7-4.6-7.6c-2.3,0.2-3.5-0.5-3.7-2
			c0-1.7,1.4-2.6,4.2-2.6h15.8c2.5-0.2,3.7,0.6,3.6,2.3c0,1.9-1.2,2.8-3.7,2.6c-3.1,0.4-4.6,3-4.6,7.9l0.2,59.4
			C3483.4,2204.6,3481.9,2205.5,3479,2203.7z"/>
	</g>
	<g id="_x3C_script_x3E__4_">
		<path class="st0" d="M2447.3,2043.9c-6.1,5.2-12.3,8.9-18.4,11.1c-6.1,2.2-10.9,3.3-14.2,3.3c-9.4,0-18.5-3.6-27.5-10.9
			c-23.3,29.3-47.3,43.9-72,43.9c-18.2,0-31.2-10.1-39-30.3c-17.2,20.2-35.7,30.3-55.5,30.3c-12.9,0-23.1-4.3-30.5-12.9
			c-7.4-8.6-11.2-20.5-11.2-35.6c0-16.3,2.3-32.9,6.8-49.7c4.5-16.8,11.5-37.4,20.8-61.7l50.6-9.5l-14.2,43.3
			c-12,37.5-18,63.4-18,77.6c0,6.7,1.6,12.2,4.8,16.5c3.2,4.3,7.2,6.4,12.1,6.4c10.3,0,20.5-8,30.7-24.1c0-20.3,3.6-41.4,11-63.3
			l15.7-47l51.4-9.5l-21.5,67.1c-6.9,21.6-10.4,38.7-10.4,51.2c0,7.6,1.7,13.7,5,18.2c3.3,4.5,7.8,6.8,13.3,6.8
			c6.8,0,13.2-2.5,19.2-7.6c6-5,12.8-12.7,20.4-22.9c-6.8-12.5-10.2-25.5-10.2-39c0-19.4,4.8-36.6,14.4-51.5
			c9.6-14.9,20.4-22.4,32.5-22.4c8.3,0,12.5,6.3,12.5,19c0,27.3-10.4,58.2-31.3,92.8c6.4,6.1,13.2,9.1,20.4,9.1
			c8.6,0,19.3-7,32.3-21.1L2447.3,2043.9L2447.3,2043.9z"/>
		<path class="st0" d="M2541.7,2043.9c-30,31.8-52.4,47.7-67.2,47.7c-8.2,0-15.1-4.2-20.7-12.7c-5.6-8.5-8.5-19.1-8.5-31.9
			c0-27.5,9.2-65.7,27.7-114.5l48.8-10.3h2.3l-19.2,60.7c-8,25.1-11.9,43-11.9,53.8c0,4.3,0.9,7.7,2.8,10.4c1.8,2.7,4.2,4,7,4
			c5,0,10-1.8,15.1-5.5c5-3.7,13-11.7,23.9-24L2541.7,2043.9L2541.7,2043.9z"/>
		<path class="st0" d="M2730.3,2043.9c-29.6,31.6-55,47.4-76.1,47.4c-8.6,0-15.5-3-20.7-9.1c-5.2-6.1-7.9-14.2-7.9-24.4
			c0-13.8,5.6-35,16.9-63.5c6-15.3,9-25,9-29.1c0-4.1-1.6-6.2-4.8-6.2c-1.8,0-4.2,0.9-7.1,2.7c-2.7,1.8-5.8,4.3-9.4,7.6
			c-3.2,3-6.8,6.6-10.8,10.9c-3.5,3.6-7.2,7.8-11.2,12.4l-10.8,12.6c-4.7,5.8-7.7,12-8.9,18.4c-1.9,11-3.2,21.1-3.8,30.3
			c-0.4,6.9-0.6,16.1-0.6,27.8l-42.5,10.1c-1.4-17.5-2.1-30.5-2.1-39c0-20.8,2.4-40.6,7.2-59.2c4.8-18.6,12.5-39.6,23.1-62.9
			l46.9-9.1c-9.9,26.8-16.3,47.9-19.4,63.3c21-23.7,37.6-40.1,50-49.2c12.3-9.1,23.3-13.7,32.9-13.7c6.5,0,12,2.5,16.3,7.5
			c4.3,5,6.5,11.2,6.5,18.7c0,12.4-5.5,32.9-16.5,61.3c-7.5,19.5-11.3,32.2-11.3,38.1c0,7.8,3.1,11.7,9.5,11.7
			c9.4,0,24.5-12.5,45.5-37.5L2730.3,2043.9L2730.3,2043.9z"/>
		<path class="st0" d="M2935.3,2043.9c-18.4,18.5-32.5,31-42.2,37.6c-9.7,6.5-18.2,9.8-25.7,9.8c-9.1,0-16.3-4.5-21.6-13.4
			c-5.3-8.9-8.1-22-8.2-39.2c-10.5,17.2-21.9,30.3-34.3,39.2c-12.4,8.9-23.5,13.4-33.5,13.4c-10.9,0-20.5-5.2-28.8-15.6
			c-8.3-10.4-12.5-22.6-12.5-36.6c0-28.8,10.4-55.6,31.2-80.2c20.8-24.6,43.2-37,67.1-37c6.6,0,11.9,1,15.7,2.9
			c3.8,1.9,7.9,5.2,12.4,9.9l27.5-116.1c22.4-5.3,37.5-8,45.4-8c2.6,0,3.8,1,3.8,3.1c0,1.4-3.2,14.8-9.6,40.2
			c-25.6,101.5-38.4,162.6-38.4,183.6c0,4.9,1,8.9,3.1,11.8c2,3,4.7,4.4,8.1,4.4c8.2,0,21.7-10.7,40.5-32.2L2935.3,2043.9
			L2935.3,2043.9z M2796.4,2054.1c12.6,0,24.3-10.7,35.1-32.2c10.9-21.5,16.3-41.6,16.3-60.3c0-7.6-1.7-13.7-5.1-18.2
			c-3.4-4.5-7.9-6.8-13.4-6.8c-11.9,0-23.5,11.2-34.6,33.7c-11.2,22.4-16.7,42.7-16.7,60.8c0,7.1,1.6,12.7,4.9,16.9
			C2786.3,2052.1,2790.7,2054.1,2796.4,2054.1z"/>
		<path class="st0" d="M3279.5,2043.9c-20.5,19.7-35.1,32.5-44,38.4c-8.9,5.9-17.3,8.9-25.4,8.9c-20.2,0-29.8-18-28.6-54.1
			c-12.8,18.5-24.6,32.2-35.4,41c-10.8,8.8-22,13.2-33.5,13.2c-11.3,0-20.8-5.3-28.7-16c-7.9-10.7-11.8-23.8-11.8-39.3
			c0-19.4,5.3-37.9,15.8-55.5c10.6-17.6,24.1-31.8,40.6-42.7c16.5-10.9,31.1-16.3,43.8-16.3c16,0,27.2,7.4,33.6,22.3l39.3-21.9h10.8
			l-16.9,56.9c-8.7,28.6-13.1,48.2-13.1,58.8c0,11.1,3.9,16.7,11.7,16.7c5,0,10.5-2.7,16.5-8c6-5.4,14.5-13.5,25.4-24.5
			L3279.5,2043.9L3279.5,2043.9z M3138.9,2054.5c12.8,0,24.9-11,36.2-33.1c11.3-22,17-42.4,17-61c0-7.2-1.6-12.9-4.8-17
			c-3.2-4.1-7.5-6.1-12.9-6.1c-12.8,0-25,11-36.4,33s-17.2,42.3-17.2,60.7c0,7,1.7,12.6,5.1,17
			C3129.3,2052.4,3133.6,2054.5,3138.9,2054.5z"/>
		<path class="st0" d="M3373.8,2043.9c-30,31.8-52.4,47.7-67.2,47.7c-8.2,0-15.1-4.2-20.7-12.7c-5.6-8.5-8.5-19.1-8.5-31.9
			c0-27.5,9.2-65.7,27.7-114.5l48.8-10.3h2.3l-19.2,60.7c-8,25.1-11.9,43-11.9,53.8c0,4.3,0.9,7.7,2.8,10.4c1.9,2.7,4.2,4,7,4
			c5,0,10-1.8,15.1-5.5c5-3.7,13-11.7,23.9-24L3373.8,2043.9L3373.8,2043.9z"/>
		<path class="st0" d="M3501,2043.9c-17.4,16.2-32.7,28.1-45.8,35.8c-13.1,7.7-25.6,11.5-37.5,11.5c-13.7,0-24.8-5.4-33.1-16.1
			c-8.4-10.7-12.6-25.1-12.6-43.3c0-27.2,5.8-59.8,17.5-97.8c11.7-38.1,26.9-74.4,42.5-105.2c15.5-30.8,52.1-29.9,61.4-10.8
			c2.4,5.5,3.6,12.9,3.6,22.2c0,26.4-6,52-18.1,76.6c-12,24.7-30.9,51.1-56.5,79.2c-1,13.5-1.5,22.7-1.5,27.8
			c0,11.2,2,20.2,6.1,26.8c4.1,6.6,9.5,9.9,16.3,9.9c6.9,0,14.3-2.5,22.1-7.6c7.8-5,19.7-15.5,35.7-31.5V2043.9L3501,2043.9z
			 M3427.4,1968c16.3-18.3,29.5-38.8,39.6-61.4c10.1-22.7,15.2-42.2,15.2-58.5c0-4.8-0.7-8.6-2.1-11.6c-1.4-2.9-3.2-4.4-5.4-4.4
			c-4.7,0-11.6,11.9-20.6,35.8C3445,1891.7,3436.1,1925.1,3427.4,1968z"/>
	</g>
	<g id="_x3C_sail_x3E__3_">
		<g>
			<path class="st0" d="M3005.6,1879.3c-15.3,80.3-55.5,152.4-97.1,132.2c9.9,65.6,62.8,101.3,103,93.1
				C3066.4,2091.7,3099,1949.9,3005.6,1879.3z M3032.6,2029.5c-5,24.3-16.8,39.7-25.4,42.1c-1.7,0.3-3.4,0.5-5.2,0.5
				c-14.9,0-36.1-11.3-48-35.7c29.6-10.9,51.2-48.8,64.4-90C3035.6,1973.2,3037.7,2004.8,3032.6,2029.5z"/>
		</g>
	</g>
	<path id="TopSail_2_" class="st1" d="M3324.6,1893.6c-206.5-419.8-619.6-419.8-826.2,0C2653.3,1683.7,3169.7,1683.7,3324.6,1893.6z
		"/>
</g>
</svg>
